<svg width="30" height="30" viewBox="0 0 30 30" fill="none" xmlns="http://www.w3.org/2000/svg">
<g clip-path="url(#clip0_2_71)">
<rect width="30" height="30" rx="4" fill="white"/>
<g clip-path="url(#clip1_2_71)">
<path fill-rule="evenodd" clip-rule="evenodd" d="M3.33333 30H26.6667C28.5076 30 30 28.5076 30 26.6667V3.33333C30 1.49238 28.5076 0 26.6667 0H3.33333C1.49238 0 0 1.49238 0 3.33333V26.6667C0 28.5076 1.49238 30 3.33333 30Z" fill="#EF0090"/>
<path fill-rule="evenodd" clip-rule="evenodd" d="M15 5C17.7158 5 18.0564 5.01151 19.123 5.06018C20.1874 5.10872 20.9143 5.27779 21.5504 5.52501C22.208 5.78052 22.7656 6.12246 23.3216 6.67839C23.8775 7.23436 24.2195 7.79203 24.475 8.44962C24.7222 9.08569 24.8913 9.81263 24.9398 10.877C24.9885 11.9436 25 12.2842 25 15C25 17.7158 24.9885 18.0564 24.9398 19.123C24.8913 20.1874 24.7222 20.9143 24.475 21.5504C24.2195 22.208 23.8775 22.7656 23.3216 23.3216C22.7656 23.8775 22.208 24.2195 21.5504 24.475C20.9143 24.7222 20.1874 24.8913 19.123 24.9398C18.0564 24.9885 17.7158 25 15 25C12.2842 25 11.9436 24.9885 10.877 24.9398C9.81263 24.8913 9.08569 24.7222 8.44962 24.475C7.79203 24.2195 7.23436 23.8775 6.67839 23.3216C6.12246 22.7656 5.78052 22.208 5.52501 21.5504C5.27779 20.9143 5.10872 20.1874 5.06018 19.123C5.01151 18.0564 5 17.7158 5 15C5 12.2842 5.01151 11.9436 5.06018 10.877C5.10872 9.81263 5.27779 9.08569 5.52501 8.44962C5.78052 7.79203 6.12246 7.23436 6.67839 6.67839C7.23436 6.12246 7.79203 5.78052 8.44962 5.52501C9.08569 5.27779 9.81263 5.10872 10.877 5.06018C11.9436 5.01151 12.2842 5 15 5ZM15 6.8018C12.3299 6.8018 12.0136 6.812 10.9591 6.86011C9.98415 6.90457 9.45466 7.06748 9.10229 7.20443C8.63551 7.38583 8.30239 7.60253 7.95248 7.95248C7.60253 8.30239 7.38583 8.63551 7.20443 9.10229C7.06748 9.45466 6.90457 9.98415 6.86011 10.9591C6.812 12.0136 6.8018 12.3299 6.8018 15C6.8018 17.6701 6.812 17.9864 6.86011 19.0409C6.90457 20.0158 7.06748 20.5453 7.20443 20.8977C7.38583 21.3645 7.60257 21.6976 7.95248 22.0475C8.30239 22.3975 8.63551 22.6142 9.10229 22.7956C9.45466 22.9325 9.98415 23.0954 10.9591 23.1399C12.0135 23.188 12.3297 23.1982 15 23.1982C17.6703 23.1982 17.9866 23.188 19.0409 23.1399C20.0158 23.0954 20.5453 22.9325 20.8977 22.7956C21.3645 22.6142 21.6976 22.3975 22.0475 22.0475C22.3975 21.6976 22.6142 21.3645 22.7956 20.8977C22.9325 20.5453 23.0954 20.0158 23.1399 19.0409C23.188 17.9864 23.1982 17.6701 23.1982 15C23.1982 12.3299 23.188 12.0136 23.1399 10.9591C23.0954 9.98415 22.9325 9.45466 22.7956 9.10229C22.6142 8.63551 22.3975 8.30239 22.0475 7.95248C21.6976 7.60253 21.3645 7.38583 20.8977 7.20443C20.5453 7.06748 20.0158 6.90457 19.0409 6.86011C17.9864 6.812 17.6701 6.8018 15 6.8018ZM15 9.86487C17.8361 9.86487 20.1351 12.1639 20.1351 15C20.1351 17.8361 17.8361 20.1351 15 20.1351C12.1639 20.1351 9.86487 17.8361 9.86487 15C9.86487 12.1639 12.1639 9.86487 15 9.86487ZM15 18.3333C16.841 18.3333 18.3333 16.841 18.3333 15C18.3333 13.159 16.841 11.6667 15 11.6667C13.159 11.6667 11.6667 13.159 11.6667 15C11.6667 16.841 13.159 18.3333 15 18.3333ZM21.538 9.66199C21.538 10.3247 21.0008 10.862 20.338 10.862C19.6753 10.862 19.138 10.3247 19.138 9.66199C19.138 8.99924 19.6753 8.46196 20.338 8.46196C21.0008 8.46196 21.538 8.99924 21.538 9.66199Z" fill="white"/>
</g>
</g>
<defs>
<clipPath id="clip0_2_71">
<rect width="30" height="30" rx="4" fill="white"/>
</clipPath>
<clipPath id="clip1_2_71">
<rect width="30" height="30" fill="white"/>
</clipPath>
</defs>
</svg>
