<svg width="30" height="30" viewBox="0 0 30 30" fill="none" xmlns="http://www.w3.org/2000/svg">
<g clip-path="url(#clip0_2_78)">
<rect width="30" height="30" rx="4" fill="white"/>
<rect width="63" height="63" transform="translate(-11 -10)" fill="black"/>
<path d="M15.5696 5.76651C16.6367 5.75 17.6976 5.75978 18.7573 5.75C18.8215 6.99802 19.2703 8.26929 20.1839 9.1517C21.0956 10.0561 22.3852 10.47 23.64 10.6101V13.8931C22.4641 13.8546 21.2827 13.61 20.2157 13.1037C19.751 12.8933 19.318 12.6225 18.8943 12.3454C18.8888 14.7278 18.9041 17.1071 18.879 19.4796C18.8154 20.6194 18.4393 21.7537 17.7765 22.693C16.71 24.2565 14.8591 25.2759 12.958 25.3077C11.7919 25.3743 10.627 25.0563 9.63338 24.4705C7.98664 23.4995 6.82788 21.7219 6.6591 19.8141C6.63953 19.4063 6.63284 18.999 6.64931 18.6009C6.7961 17.0496 7.56349 15.5655 8.75466 14.556C10.1048 13.3801 11.9961 12.82 13.767 13.1514C13.7835 14.3591 13.7352 15.5655 13.7352 16.7732C12.9262 16.5115 11.9808 16.5849 11.274 17.0759C10.7579 17.4104 10.3659 17.9228 10.1617 18.5025C9.99294 18.9158 10.0412 19.3751 10.051 19.8141C10.2448 21.152 11.5314 22.2765 12.9048 22.1549C13.8153 22.1451 14.6879 21.6167 15.1624 20.8432C15.3159 20.5723 15.4877 20.2954 15.4969 19.9768C15.577 18.5184 15.5452 17.0661 15.555 15.6077C15.5617 12.321 15.5452 9.04346 15.5703 5.76714L15.5696 5.76651Z" fill="white"/>
</g>
<defs>
<clipPath id="clip0_2_78">
<rect width="30" height="30" rx="4" fill="white"/>
</clipPath>
</defs>
</svg>
