<svg width="100" height="100" viewBox="0 0 100 100" fill="none" xmlns="http://www.w3.org/2000/svg">
<g clip-path="url(#clip0_2_31)">
<path d="M50 64C63.8071 64 75 52.8071 75 39C75 25.1929 63.8071 14 50 14C36.1929 14 25 25.1929 25 39C25 52.8071 36.1929 64 50 64Z" fill="#333333"/>
<path fill-rule="evenodd" clip-rule="evenodd" d="M49.6862 41.2172C50.9665 39.9368 52.6874 39.3117 54.2662 39.019C55.2362 38.8392 57.0497 38.7852 58.4449 38.7812L58.7394 37.2235H41.2614L42.4259 43.3825C43.607 43.35 45.3567 43.2518 46.29 43.0148C47.5039 42.7068 48.741 42.1623 49.686 41.2172H49.6862Z" fill="#FFFFFE"/>
<path fill-rule="evenodd" clip-rule="evenodd" d="M46.5053 43.876C45.5447 44.1198 43.8195 44.2255 42.5923 44.2633L44.2117 52.8283C44.2241 52.9367 44.276 53.0368 44.3575 53.1094C44.4389 53.182 44.5442 53.2222 44.6533 53.2222H55.3408C55.4456 53.2237 55.5474 53.1882 55.6286 53.122C55.7097 53.0558 55.7649 52.9631 55.7843 52.8602L55.7833 52.8592L58.2772 39.6687C56.9493 39.676 55.2975 39.729 54.426 39.8905C52.9968 40.1553 51.4468 40.7135 50.3147 41.8455C49.2405 42.9197 47.8563 43.533 46.5053 43.8758V43.876ZM45.3403 46.9243C45.3404 46.666 45.417 46.4134 45.5606 46.1986C45.7041 45.9838 45.9082 45.8164 46.1469 45.7176C46.3856 45.6187 46.6482 45.5929 46.9016 45.6433C47.155 45.6937 47.3878 45.8181 47.5705 46.0008C47.7531 46.1835 47.8775 46.4163 47.9279 46.6697C47.9783 46.9231 47.9524 47.1858 47.8536 47.4245C47.7547 47.6631 47.5872 47.8672 47.3724 48.0107C47.1576 48.1542 46.905 48.2308 46.6467 48.2308C46.3003 48.2305 45.9682 48.0927 45.7233 47.8478C45.4784 47.6028 45.3407 47.2707 45.3403 46.9243ZM47.9595 48.8515C48.2179 48.8515 48.4705 48.9281 48.6853 49.0716C48.9002 49.2152 49.0676 49.4192 49.1665 49.6579C49.2654 49.8966 49.2913 50.1593 49.2409 50.4127C49.1905 50.6661 49.0661 50.8989 48.8834 51.0816C48.7007 51.2644 48.468 51.3888 48.2145 51.4392C47.9611 51.4896 47.6985 51.4638 47.4597 51.3649C47.221 51.2661 47.017 51.0986 46.8734 50.8838C46.7298 50.669 46.6532 50.4164 46.6532 50.158C46.6534 49.8116 46.7911 49.4794 47.036 49.2345C47.2809 48.9895 47.6131 48.8518 47.9595 48.8515ZM52.389 46.3168C52.3894 45.9705 52.5271 45.6384 52.772 45.3935C53.0169 45.1486 53.349 45.0109 53.6953 45.0105C54.8667 45.0105 55.4308 46.4288 54.6192 47.2407C54.4365 47.4234 54.2037 47.5478 53.9503 47.5982C53.6969 47.6486 53.4342 47.6228 53.1955 47.5239C52.9568 47.425 52.7528 47.2576 52.6092 47.0428C52.4657 46.828 52.389 46.5754 52.389 46.317V46.3168ZM54.2207 43.6735C53.9623 43.6735 53.7097 43.5969 53.4949 43.4533C53.2801 43.3098 53.1127 43.1058 53.0138 42.8671C52.9149 42.6284 52.889 42.3657 52.9394 42.1123C52.9899 41.8589 53.1143 41.6261 53.297 41.4435C53.4797 41.2608 53.7124 41.1363 53.9658 41.0859C54.2192 41.0355 54.4819 41.0614 54.7206 41.1603C54.9593 41.2591 55.1633 41.4266 55.3069 41.6414C55.4504 41.8562 55.527 42.1088 55.527 42.3672C55.5266 42.7135 55.3889 43.0456 55.144 43.2905C54.8991 43.5354 54.567 43.6731 54.2207 43.6735ZM48.9827 46.734C48.9827 46.4756 49.0593 46.2231 49.2028 46.0082C49.3464 45.7934 49.5504 45.626 49.7891 45.5271C50.0278 45.4282 50.2905 45.4024 50.5439 45.4528C50.7973 45.5032 51.03 45.6276 51.2127 45.8103C51.3954 45.993 51.5198 46.2257 51.5702 46.4791C51.6207 46.7326 51.5948 46.9952 51.4959 47.2339C51.397 47.4726 51.2296 47.6766 51.0148 47.8202C50.7999 47.9637 50.5474 48.0403 50.289 48.0403C49.9427 48.04 49.6106 47.9022 49.3657 47.6573C49.1208 47.4124 48.983 47.0804 48.9827 46.734ZM52.3323 48.678C52.5907 48.678 52.8433 48.7546 53.0582 48.8981C53.273 49.0417 53.4405 49.2457 53.5394 49.4844C53.6383 49.7232 53.6642 49.9858 53.6137 50.2393C53.5633 50.4927 53.4389 50.7255 53.2562 50.9082C53.0735 51.0909 52.8407 51.2153 52.5873 51.2657C52.3338 51.3161 52.0712 51.2903 51.8324 51.1914C51.5937 51.0925 51.3897 50.925 51.2461 50.7102C51.1026 50.4953 51.026 50.2427 51.026 49.9843C51.0263 49.638 51.164 49.3058 51.4089 49.0609C51.6538 48.816 51.986 48.6782 52.3323 48.678Z" fill="#FFFFFE"/>
<path d="M48.1903 30.7625V25.2223C48.1903 25.164 48.2018 25.1062 48.2241 25.0522C48.2465 24.9983 48.2792 24.9493 48.3205 24.908C48.3618 24.8667 48.4108 24.834 48.4647 24.8117C48.5186 24.7893 48.5764 24.7778 48.6348 24.7778H51.3653C51.4237 24.7778 51.4815 24.7893 51.5354 24.8117C51.5893 24.834 51.6383 24.8667 51.6796 24.908C51.7209 24.9493 51.7536 24.9983 51.776 25.0522C51.7983 25.1062 51.8098 25.164 51.8098 25.2223V30.7625C51.8098 30.8209 51.7983 30.8787 51.776 30.9326C51.7536 30.9865 51.7209 31.0355 51.6796 31.0768C51.6383 31.1181 51.5893 31.1508 51.5354 31.1732C51.4815 31.1955 51.4237 31.207 51.3653 31.207H48.6348C48.5764 31.207 48.5186 31.1955 48.4647 31.1732C48.4108 31.1508 48.3618 31.1181 48.3205 31.0768C48.2792 31.0355 48.2465 30.9865 48.2241 30.9326C48.2018 30.8787 48.1903 30.8209 48.1903 30.7625Z" fill="#FFFFFE"/>
<path d="M59.667 34.493V36.2235C59.667 36.2819 59.6555 36.3397 59.6332 36.3936C59.6108 36.4475 59.5781 36.4965 59.5368 36.5378C59.4955 36.5791 59.4465 36.6118 59.3926 36.6342C59.3387 36.6565 59.2809 36.668 59.2225 36.668H40.7775C40.7191 36.668 40.6613 36.6565 40.6074 36.6342C40.5535 36.6118 40.5045 36.5791 40.4632 36.5378C40.4219 36.4965 40.3892 36.4475 40.3668 36.3936C40.3445 36.3397 40.333 36.2819 40.333 36.2235V34.493H59.667Z" fill="#FFFFFE"/>
<path d="M60.7921 33.9375H39.2078C39.1494 33.9375 39.0916 33.926 39.0377 33.9037C38.9838 33.8813 38.9348 33.8486 38.8935 33.8073C38.8522 33.766 38.8195 33.717 38.7971 33.6631C38.7748 33.6092 38.7633 33.5514 38.7633 33.493V30.7625C38.7633 30.7041 38.7748 30.6463 38.7971 30.5924C38.8195 30.5385 38.8522 30.4895 38.8935 30.4482C38.9348 30.4069 38.9838 30.3742 39.0377 30.3518C39.0916 30.3295 39.1494 30.318 39.2078 30.318H60.7921C60.8505 30.318 60.9083 30.3295 60.9622 30.3518C61.0162 30.3742 61.0652 30.4069 61.1065 30.4482C61.1477 30.4895 61.1805 30.5385 61.2028 30.5924C61.2251 30.6463 61.2366 30.7041 61.2366 30.7625V33.493C61.2366 33.5514 61.2251 33.6092 61.2028 33.6631C61.1805 33.717 61.1477 33.766 61.1065 33.8073C61.0652 33.8486 61.0162 33.8813 60.9622 33.9037C60.9083 33.926 60.8505 33.9375 60.7921 33.9375Z" fill="#FFFFFE"/>
</g>
<path d="M29.3511 82H27.6519C27.6128 82 27.5933 81.9756 27.5933 81.9268L27.6079 71.6216C27.6079 71.5825 27.6323 71.563 27.6812 71.563H29.3511C29.3999 71.563 29.4243 71.5825 29.4243 71.6216L29.4097 75.7012H31.6582V71.6216C31.6582 71.5825 31.6777 71.563 31.7168 71.563H33.3867C33.4355 71.563 33.46 71.5825 33.46 71.6216L33.4893 81.9268C33.4893 81.9756 33.4648 82 33.416 82H31.7314C31.6826 82 31.6582 81.9756 31.6582 81.9268V77.5176H29.4097V81.9268C29.4097 81.9756 29.3901 82 29.3511 82ZM41.3848 82.1465C40.8525 82.1465 40.3618 82.0098 39.9126 81.7363C39.4683 81.4629 39.1094 81.0991 38.8359 80.645C38.5674 80.186 38.4331 79.6831 38.4331 79.1362L38.4478 74.3828C38.4478 73.8262 38.582 73.3257 38.8506 72.8813C39.1143 72.4321 39.4707 72.0732 39.9199 71.8047C40.3691 71.5312 40.8574 71.3945 41.3848 71.3945C41.9316 71.3945 42.4224 71.5288 42.8569 71.7974C43.2964 72.0659 43.6479 72.4272 43.9116 72.8813C44.1802 73.3306 44.3145 73.8311 44.3145 74.3828L44.3291 79.1362C44.3291 79.6831 44.1973 80.1836 43.9336 80.6377C43.665 81.0967 43.3086 81.4629 42.8643 81.7363C42.4199 82.0098 41.9268 82.1465 41.3848 82.1465ZM41.3848 80.3374C41.6875 80.3374 41.9512 80.2153 42.1758 79.9712C42.4004 79.7222 42.5127 79.4438 42.5127 79.1362L42.498 74.3828C42.498 74.0508 42.3931 73.77 42.1831 73.5405C41.9731 73.311 41.707 73.1963 41.3848 73.1963C41.0771 73.1963 40.8135 73.3086 40.5938 73.5332C40.374 73.7578 40.2642 74.041 40.2642 74.3828V79.1362C40.2642 79.4634 40.374 79.7466 40.5938 79.9858C40.8135 80.2202 41.0771 80.3374 41.3848 80.3374ZM52.1221 82.1465C51.5801 82.1465 51.0845 82.0098 50.6353 81.7363C50.1909 81.4629 49.8369 81.0967 49.5732 80.6377C49.3145 80.1738 49.1851 79.6587 49.1851 79.0923L49.1997 74.4121C49.1997 73.8555 49.3267 73.3525 49.5806 72.9033C49.8345 72.4492 50.1836 72.0854 50.6279 71.812C51.0771 71.5337 51.5752 71.3945 52.1221 71.3945C52.6787 71.3945 53.1743 71.5288 53.6089 71.7974C54.0483 72.0659 54.3975 72.4297 54.6562 72.8887C54.9199 73.3428 55.0518 73.8506 55.0518 74.4121V75.1006C55.0518 75.1396 55.0322 75.1592 54.9932 75.1592H53.3086C53.2695 75.1592 53.25 75.1396 53.25 75.1006V74.4121C53.25 74.0801 53.1426 73.7944 52.9277 73.5552C52.7129 73.3159 52.4443 73.1963 52.1221 73.1963C51.7656 73.1963 51.4922 73.3184 51.3018 73.5625C51.1113 73.8066 51.0161 74.0898 51.0161 74.4121V79.0923C51.0161 79.4585 51.1235 79.7588 51.3384 79.9932C51.5532 80.2227 51.8145 80.3374 52.1221 80.3374C52.4443 80.3374 52.7129 80.2104 52.9277 79.9565C53.1426 79.6978 53.25 79.4097 53.25 79.0923V78.3965C53.25 78.3574 53.2695 78.3379 53.3086 78.3379H55.0078C55.0469 78.3379 55.0664 78.3574 55.0664 78.3965V79.0923C55.0664 79.6538 54.9346 80.1665 54.6709 80.6304C54.4023 81.0894 54.0483 81.458 53.6089 81.7363C53.1694 82.0098 52.6738 82.1465 52.1221 82.1465ZM59.5488 81.9268L61.4092 71.6216C61.4189 71.5825 61.4434 71.563 61.4824 71.563H63.6577C63.6968 71.563 63.7212 71.5825 63.731 71.6216L65.5181 81.9268C65.5229 81.9756 65.5034 82 65.4595 82H63.7969C63.748 82 63.7212 81.9756 63.7163 81.9268L63.5552 80.8281H61.5117L61.3506 81.9268C61.3457 81.9756 61.3213 82 61.2773 82H59.6074C59.5684 82 59.5488 81.9756 59.5488 81.9268ZM62.4858 75.0127L61.812 79.2241H63.2549L62.6396 75.0127L62.5518 74.4561L62.4858 75.0127ZM69.8467 81.9268L71.707 71.6216C71.7168 71.5825 71.7412 71.563 71.7803 71.563H73.9556C73.9946 71.563 74.019 71.5825 74.0288 71.6216L75.8159 81.9268C75.8208 81.9756 75.8013 82 75.7573 82H74.0947C74.0459 82 74.019 81.9756 74.0142 81.9268L73.853 80.8281H71.8096L71.6484 81.9268C71.6436 81.9756 71.6191 82 71.5752 82H69.9053C69.8662 82 69.8467 81.9756 69.8467 81.9268ZM72.7837 75.0127L72.1099 79.2241H73.5527L72.9375 75.0127L72.8496 74.4561L72.7837 75.0127Z" fill="black"/>
<defs>
<clipPath id="clip0_2_31">
<rect width="50" height="50" fill="white" transform="translate(25 14)"/>
</clipPath>
</defs>
</svg>
